<svg version="1.1" id="Layer_1" xmlns="http://www.w3.org/2000/svg" xmlns:xlink="http://www.w3.org/1999/xlink" x="0px" y="0px"
	 width="100%" viewBox="0 0 1024 544" enable-background="new 0 0 1024 544" xml:space="preserve">
<path fill="#000000" opacity="1.000000" stroke="none" 
	d="
M1.000000,182.416656 
	C3.170326,183.108841 5.541206,182.968445 7.854521,183.002884 
	C25.496063,183.265533 43.137951,183.521957 60.780643,183.674469 
	C63.751282,183.700134 66.486931,184.188187 68.601746,186.290436 
	C76.037270,193.681808 83.403481,201.143356 90.741653,208.631516 
	C91.498985,209.404312 91.893013,210.533127 92.848305,212.169312 
	C89.540222,211.437546 87.882370,209.572662 86.157341,207.934464 
	C80.242661,202.317596 74.264488,196.756729 68.583237,190.909515 
	C65.803780,188.048843 62.833958,186.866364 58.877022,186.900558 
	C39.897640,187.064560 20.916492,187.024612 1.467986,187.028549 
	C1.000000,185.611115 1.000000,184.222214 1.000000,182.416656 
z"/>
<path fill="#000000" opacity="1.000000" stroke="none" 
	d="
M1.000000,198.399994 
	C8.245255,199.513672 15.581997,198.543839 22.873011,198.747040 
	C30.184067,198.950790 37.544659,199.243011 44.810909,198.632294 
	C51.302795,198.086685 55.991150,200.607468 60.273552,204.892410 
	C68.499710,213.123474 76.763748,221.316711 85.020576,229.517075 
	C86.650818,231.136169 87.980263,232.934418 89.159264,235.518341 
	C86.320244,235.121002 84.867302,233.566406 83.358452,232.114166 
	C74.139343,223.241028 64.860947,214.428040 55.744843,205.450272 
	C53.307415,203.049850 50.730988,202.026443 47.325790,202.055267 
	C32.194691,202.183365 17.062006,202.124680 1.464947,202.066772 
	C1.000000,200.933334 1.000000,199.866653 1.000000,198.399994 
z"/>
<path fill="#000000" opacity="1.000000" stroke="none" 
	d="
M1025.000000,376.600006 
	C1004.721619,376.913788 984.443176,376.821442 964.164734,376.750885 
	C962.133606,376.743805 960.037537,376.728607 958.453186,375.371185 
	C951.669678,369.559387 945.333801,363.310547 940.216675,355.892731 
	C946.699280,359.090942 951.330139,364.514862 956.441711,369.294250 
	C959.038330,371.722046 961.611816,373.128174 965.211060,373.222351 
	C984.833984,373.735870 1004.449219,373.201630 1024.533447,372.996338 
	C1025.000000,374.066681 1025.000000,375.133331 1025.000000,376.600006 
z"/>
<path fill="#000000" opacity="1.000000" stroke="none" 
	d="
M1025.000000,339.583344 
	C1012.856079,340.060638 1000.711548,340.068909 988.568726,340.218689 
	C985.530762,340.256165 982.962708,339.365021 980.895447,337.264526 
	C971.571533,327.790588 962.296570,318.268311 953.033203,308.735138 
	C952.394775,308.078094 951.471741,307.400970 952.227417,305.593384 
	C956.878113,308.337067 960.319519,312.381958 964.160156,315.803131 
	C970.608276,321.547028 976.648499,327.751404 982.806885,333.816315 
	C984.288940,335.275970 985.947510,336.673676 987.975952,336.494659 
	C1000.054749,335.428711 1012.250671,338.145782 1024.631836,335.167267 
	C1025.000000,336.388885 1025.000000,337.777802 1025.000000,339.583344 
z"/>
<path fill="#000000" opacity="1.000000" stroke="none" 
	d="
M1.000000,380.416656 
	C4.365130,381.389465 7.900870,380.738831 11.358117,380.778320 
	C23.325304,380.914948 35.299465,380.730774 47.259384,381.073273 
	C52.171177,381.213959 55.804611,379.651062 59.173954,376.198944 
	C64.276260,370.971313 69.696960,366.051422 75.055000,361.079071 
	C76.090683,360.117981 76.968948,358.730469 78.979416,358.723663 
	C79.034073,360.852539 77.477234,361.983948 76.301941,363.194183 
	C70.280525,369.394653 64.152145,375.491333 58.138458,381.699158 
	C56.261829,383.636414 54.122276,384.450623 51.463722,384.395081 
	C35.701820,384.065674 19.942072,385.961151 4.174917,384.455383 
	C3.373289,384.378815 2.538314,384.651428 1.359434,384.880737 
	C1.000000,383.611115 1.000000,382.222198 1.000000,380.416656 
z"/>
<path fill="#000000" opacity="1.000000" stroke="none" 
	d="
M1.000000,401.416656 
	C7.871945,402.939728 14.886066,401.606506 21.826384,401.807220 
	C32.295513,402.109955 42.780903,401.813477 53.254261,402.025116 
	C57.343410,402.107727 60.549931,401.056274 63.508274,398.084686 
	C67.559601,394.015106 72.065338,390.397888 76.745857,386.939728 
	C73.822594,392.347687 68.911102,396.051483 65.147392,400.702728 
	C60.680962,406.222382 54.837055,405.364258 48.807144,405.543365 
	C33.181801,406.007446 17.559477,406.063324 1.466661,406.049500 
	C1.000000,404.611115 1.000000,403.222198 1.000000,401.416656 
z"/>
<path fill="#000000" opacity="1.000000" stroke="none" 
	d="
M1025.000000,361.600006 
	C1013.083252,360.515778 1001.113403,361.392090 989.172180,361.317780 
	C971.711487,361.209137 971.690308,361.411987 959.525452,348.985657 
	C955.371826,344.742798 950.723389,340.924713 946.975647,335.021729 
	C950.159668,335.470490 951.787903,337.041901 953.332458,338.480591 
	C959.045715,343.802307 964.754089,349.137573 970.249329,354.680878 
	C972.411682,356.862183 974.615601,357.811615 977.692871,357.795380 
	C993.151306,357.713867 1008.610840,357.827271 1024.534912,357.936096 
	C1025.000000,359.066681 1025.000000,360.133331 1025.000000,361.600006 
z"/>
<path fill="#000000" opacity="1.000000" stroke="none" 
	d="
M1025.000000,139.600006 
	C1002.550964,138.743118 980.081970,139.630798 957.624939,139.318924 
	C953.272339,139.258499 950.869873,142.471344 947.483154,144.323059 
	C949.440796,138.187149 951.879395,136.165619 958.658386,136.068588 
	C972.137085,135.875641 985.619873,135.971802 999.101013,135.953064 
	C1007.422180,135.941483 1015.743408,135.938309 1024.532227,135.965683 
	C1025.000000,137.066666 1025.000000,138.133347 1025.000000,139.600006 
z"/>
<path fill="#000000" opacity="1.000000" stroke="none" 
	d="
M1.000000,349.399994 
	C13.120625,349.163147 25.241020,349.347992 37.362011,349.477112 
	C41.341953,349.519501 44.497433,348.001526 47.586708,345.256348 
	C53.630726,339.885498 58.617085,333.292664 66.495522,329.697479 
	C64.724449,331.876556 63.110569,334.210114 61.150883,336.203796 
	C56.492645,340.942871 51.626358,345.476837 46.935970,350.185150 
	C44.951523,352.177185 42.535927,352.297028 40.023438,352.330139 
	C27.246864,352.498535 14.470263,352.664856 1.346836,352.915955 
	C1.000000,351.933319 1.000000,350.866669 1.000000,349.399994 
z"/>
<path fill="#000000" opacity="1.000000" stroke="none" 
	d="
M1.000000,336.375000 
	C11.142027,335.961273 21.285027,335.829010 31.425554,335.934448 
	C34.985172,335.971436 37.711403,334.938660 40.281372,332.379913 
	C46.877316,325.812744 53.705338,319.476685 60.510406,313.123047 
	C62.004654,311.727936 63.326740,309.855774 65.832802,309.867920 
	C66.168098,311.969055 64.631943,312.965820 63.539494,314.063232 
	C55.915623,321.721558 48.218052,329.306519 40.568951,336.939850 
	C38.964962,338.540558 37.140957,339.575928 34.840195,339.549896 
	C23.869610,339.425903 12.899263,339.281158 1.464416,339.071899 
	C1.000000,338.250000 1.000000,337.500000 1.000000,336.375000 
z"/>
<path fill="#000000" opacity="1.000000" stroke="none" 
	d="
M1025.000000,157.600006 
	C1008.342285,158.041885 991.677612,158.376389 975.030518,157.976288 
	C968.700928,157.824142 963.586975,158.916595 959.649536,164.075745 
	C958.891907,165.068420 957.628906,165.675385 956.325928,166.668488 
	C957.629578,160.705475 964.389221,155.054871 969.820557,154.692520 
	C985.136902,153.670731 1000.444885,154.680740 1015.756165,154.694870 
	C1018.576599,154.697479 1021.397339,154.413452 1024.608887,154.130859 
	C1025.000000,155.066666 1025.000000,156.133347 1025.000000,157.600006 
z"/>
<path fill="#000000" opacity="1.000000" stroke="none" 
	d="
M1.000000,365.416656 
	C7.079477,366.384613 13.246606,365.534790 19.371769,365.677094 
	C25.851549,365.827637 32.368893,365.348846 38.810280,365.874573 
	C44.728527,366.357666 48.791771,364.123993 52.736797,359.978088 
	C57.947399,354.502197 63.147964,348.902863 69.501205,344.431702 
	C70.825935,346.442169 69.290268,347.223267 68.522461,348.014526 
	C62.388973,354.335419 56.161694,360.565125 49.998219,366.857178 
	C47.931381,368.967133 45.348286,369.187500 42.635258,369.188171 
	C31.663740,369.190857 20.692017,369.189606 9.720865,369.263672 
	C7.075712,369.281555 4.432467,369.582184 1.394173,369.876404 
	C1.000000,368.611115 1.000000,367.222198 1.000000,365.416656 
z"/>
<path fill="#000000" opacity="1.000000" stroke="none" 
	d="
M1025.000000,394.600006 
	C1014.858826,395.013885 1004.717529,395.014771 994.576416,395.047333 
	C989.806641,395.062622 985.010559,394.455261 980.643188,397.485321 
	C978.543823,398.941864 975.991577,398.305115 974.499146,396.047852 
	C973.197876,394.079865 972.238098,391.687744 974.070618,389.585449 
	C975.942444,387.438110 978.631836,387.144745 980.855042,388.765289 
	C983.752197,390.877045 986.960266,391.355316 990.270996,391.414551 
	C1001.566406,391.616821 1012.870422,392.182190 1024.576660,391.029297 
	C1025.000000,392.066681 1025.000000,393.133331 1025.000000,394.600006 
z"/>
<path fill="#000000" opacity="1.000000" stroke="none" 
	d="
M1025.000000,224.583344 
	C1013.420288,223.424347 1001.796448,224.222610 990.187683,224.412964 
	C988.243591,224.444809 986.990356,226.059616 985.655212,227.298462 
	C978.955078,233.515533 972.272034,239.751144 965.563232,245.958740 
	C964.119202,247.294876 962.851318,248.909393 960.722717,249.398499 
	C959.752625,248.178146 960.960876,247.584961 961.511902,247.025681 
	C969.328735,239.092682 977.219299,231.232300 985.029053,223.292374 
	C987.240845,221.043625 989.940186,220.853058 992.826111,220.758453 
	C1003.286743,220.415634 1013.767639,221.378616 1024.606934,220.127518 
	C1025.000000,221.388885 1025.000000,222.777786 1025.000000,224.583344 
z"/>
<path fill="#000000" opacity="1.000000" stroke="none" 
	d="
M1.000000,321.375000 
	C8.483694,320.965393 15.978136,320.673615 23.447334,320.985809 
	C28.492050,321.196686 32.181030,319.674103 35.739494,315.993256 
	C44.014080,307.434021 52.751221,299.321960 61.482929,290.852142 
	C63.048386,293.248322 61.282825,294.466919 60.146645,295.633972 
	C51.677509,304.333038 43.127232,312.953064 34.638535,321.633209 
	C32.607712,323.709839 30.154194,324.260895 27.376926,324.237549 
	C18.894047,324.166168 10.410485,324.175995 1.463594,324.077118 
	C1.000000,323.250000 1.000000,322.500000 1.000000,321.375000 
z"/>
<path fill="#000000" opacity="1.000000" stroke="none" 
	d="
M1025.000000,239.583344 
	C1015.596741,238.167099 1006.123352,239.163467 996.673889,239.339432 
	C994.873901,239.372955 993.796204,240.835464 992.588745,241.984940 
	C986.804871,247.491074 981.006531,252.982224 975.182190,258.445526 
	C974.007019,259.547821 972.697021,260.506378 971.015076,261.129089 
	C972.848938,256.655273 976.583130,253.667480 979.542847,250.136948 
	C982.207092,246.958923 985.690430,244.438950 988.181030,241.150482 
	C992.123474,235.945023 997.350586,235.133942 1003.232483,235.447632 
	C1010.211365,235.819809 1017.196777,236.054047 1024.574951,235.002747 
	C1025.000000,236.388885 1025.000000,237.777786 1025.000000,239.583344 
z"/>
<path fill="#000000" opacity="1.000000" stroke="none" 
	d="
M1025.000000,255.600006 
	C1016.873718,254.680420 1011.406189,258.601624 1006.109314,264.358246 
	C999.182983,271.885590 992.332581,279.635284 983.437256,285.121033 
	C980.308167,287.050781 977.789368,287.823303 975.576172,283.972229 
	C981.663391,282.948608 986.155518,279.247559 990.371399,275.526886 
	C996.222473,270.363129 1001.820496,264.834839 1006.961792,258.967499 
	C1011.664795,253.600342 1017.120178,251.176514 1024.554688,251.961975 
	C1025.000000,253.066666 1025.000000,254.133347 1025.000000,255.600006 
z"/>
<path fill="#000000" opacity="1.000000" stroke="none" 
	d="
M1.000000,147.399994 
	C13.990775,147.216965 26.984367,147.335083 39.970779,147.705185 
	C44.443466,147.832657 46.930351,147.045135 46.228031,141.629425 
	C45.772186,138.114319 46.695740,134.420319 47.510647,130.807922 
	C49.762207,136.494217 49.217590,142.382004 48.723927,148.202423 
	C48.524628,150.552170 46.314846,150.415115 44.405457,150.515549 
	C30.254864,151.259811 16.095667,151.083359 1.468531,151.016144 
	C1.000000,149.933334 1.000000,148.866653 1.000000,147.399994 
z"/>
<path fill="#000000" opacity="1.000000" stroke="none" 
	d="
M1025.000000,210.625000 
	C1012.195496,211.018677 999.406799,209.601852 986.576477,210.877014 
	C983.211487,211.211441 980.548401,212.018082 978.217285,214.512634 
	C975.034912,217.918106 971.638916,221.129501 968.242004,224.325897 
	C967.000977,225.493652 965.976501,227.240997 963.051392,226.851135 
	C968.157532,219.545181 974.091492,213.675919 980.726746,208.502655 
	C981.641663,207.789352 983.278748,207.817368 984.581909,207.815567 
	C997.744324,207.797440 1010.906738,207.844650 1024.534668,207.936737 
	C1025.000000,208.750000 1025.000000,209.500000 1025.000000,210.625000 
z"/>
<path fill="#000000" opacity="1.000000" stroke="none" 
	d="
M1025.000000,96.600006 
	C1020.852234,96.801750 1016.665161,96.891678 1012.566833,96.331650 
	C1007.543274,95.645210 1003.443359,97.449173 1000.662476,101.120834 
	C993.660461,110.365974 984.765381,113.839012 973.367798,112.082298 
	C969.704956,111.517731 965.723999,111.561066 962.771790,114.976578 
	C961.785217,116.117928 960.065857,116.158318 958.536072,115.016518 
	C962.000549,110.678848 966.220947,108.549873 971.836365,109.912971 
	C972.467834,110.066277 973.169861,109.900131 973.827454,109.979568 
	C984.069702,111.216957 992.839783,109.118881 998.894409,99.783043 
	C1002.064392,94.895050 1006.962708,93.334610 1012.765686,93.700958 
	C1016.550598,93.939911 1020.385437,93.388809 1024.598877,93.095810 
	C1025.000000,94.066673 1025.000000,95.133339 1025.000000,96.600006 
z"/>
<path fill="#000000" opacity="1.000000" stroke="none" 
	d="
M1.000000,419.399994 
	C7.408340,420.385651 13.905860,419.475372 20.356358,419.665009 
	C31.155640,419.982452 41.967533,419.853638 52.773270,419.983459 
	C54.882107,420.008789 57.099819,419.653748 59.051624,421.436218 
	C40.025738,422.430054 21.011938,423.597412 1.467774,423.033264 
	C1.000000,421.933319 1.000000,420.866669 1.000000,419.399994 
z"/>
<path fill="#000000" opacity="1.000000" stroke="none" 
	d="
M1.000000,305.333313 
	C8.007195,305.585266 13.292415,302.747589 17.939671,297.527222 
	C23.002710,291.839813 28.772261,286.785858 34.144058,281.366791 
	C36.582897,278.906525 39.416424,277.475220 43.397907,276.991089 
	C42.546925,280.303070 39.216686,280.167297 37.551510,281.922119 
	C31.155365,288.662415 24.069901,294.787201 18.046261,301.829834 
	C13.410368,307.249969 8.410900,308.991150 1.405657,307.040009 
	C1.000000,306.555542 1.000000,306.111115 1.000000,305.333313 
z"/>
<path fill="#000000" opacity="1.000000" stroke="none" 
	d="
M1025.000000,412.600006 
	C1009.179321,411.812592 993.350586,412.897583 977.180603,412.889740 
	C977.052307,409.568817 979.419983,409.738495 981.437988,409.713379 
	C994.055786,409.556152 1006.674500,409.462646 1019.292542,409.322021 
	C1020.944702,409.303619 1022.595093,409.135895 1024.623169,409.018677 
	C1025.000000,410.066681 1025.000000,411.133331 1025.000000,412.600006 
z"/>
<path fill="#000000" opacity="1.000000" stroke="none" 
	d="
M1.000000,165.375000 
	C15.056561,164.889420 29.134169,164.141495 43.151119,166.624069 
	C29.468559,168.947189 15.672048,167.960510 1.463266,168.080261 
	C1.000000,167.250000 1.000000,166.500000 1.000000,165.375000 
z"/>
<path fill="#000000" opacity="1.000000" stroke="none" 
	d="
M1.000000,433.399994 
	C8.889205,434.756592 16.903030,433.203796 24.831516,433.899109 
	C27.264711,434.112518 29.820320,433.525635 33.072155,435.494476 
	C22.125858,437.120544 12.051834,437.367920 1.468659,437.009216 
	C1.000000,435.933319 1.000000,434.866669 1.000000,433.399994 
z"/>
<path fill="#000000" opacity="1.000000" stroke="none" 
	d="
M16.399996,545.000000 
	C18.688419,539.952209 31.858477,526.914795 38.693108,522.980225 
	C34.814438,528.605530 30.084677,533.501709 25.182011,538.248169 
	C23.279198,540.090332 21.110102,541.707458 20.068680,544.660400 
	C18.933331,545.000000 17.866661,545.000000 16.399996,545.000000 
z"/>
<path fill="#000000" opacity="1.000000" stroke="none" 
	d="
M1.000000,463.399994 
	C2.162169,463.000702 3.326181,462.958740 4.486213,463.008881 
	C13.639185,463.404510 23.409979,465.923462 29.221214,454.957611 
	C26.903231,461.827179 21.364719,465.930237 15.197614,466.196869 
	C10.726346,466.390137 6.254089,466.560577 1.391137,466.870605 
	C1.000000,465.933319 1.000000,464.866669 1.000000,463.399994 
z"/>
<path fill="#000000" opacity="1.000000" stroke="none" 
	d="
M502.431824,291.174286 
	C496.621490,319.344055 474.916870,341.172394 446.833313,345.850677 
	C410.841492,351.846344 378.175323,330.431244 368.510712,297.243134 
	C367.720184,294.528442 366.863281,291.879272 366.512177,289.027618 
	C365.446564,280.372192 365.331360,280.348999 372.785339,276.339630 
	C381.440430,271.684174 390.203094,267.223389 398.772522,262.416840 
	C401.919312,260.651825 403.713318,261.274506 405.894073,263.947296 
	C410.024078,269.009247 413.562500,273.724243 413.513947,281.083679 
	C413.451538,290.536682 423.090393,299.018066 432.634003,299.665344 
	C443.193787,300.381592 452.912170,293.808075 455.519958,284.063019 
	C456.249329,281.337372 456.693573,278.551453 456.687622,275.677338 
	C456.631836,248.682175 456.531616,221.686111 456.722900,194.692291 
	C456.758606,189.653534 455.211487,188.064774 450.143494,188.178528 
	C435.986328,188.496307 421.814545,188.133408 407.655090,188.394791 
	C402.961243,188.481461 401.616486,186.829025 401.714142,182.310974 
	C401.973419,170.318695 401.924774,158.316193 401.772186,146.320633 
	C401.723816,142.516724 402.908295,140.948074 406.901703,140.960693 
	C437.395935,141.057144 467.890869,141.052490 498.384979,140.930420 
	C502.550110,140.913757 503.949646,142.554398 503.939331,146.543182 
	C503.868164,174.037933 503.900940,201.533020 503.948334,229.027893 
	C503.952942,231.693146 503.184326,233.852448 501.223846,235.712799 
	C497.305023,239.431381 493.492462,243.261932 489.617645,247.064285 
	C487.223785,244.712708 487.981445,242.421982 487.976166,240.362564 
	C487.910217,214.700577 487.920990,189.038391 487.887970,163.376312 
	C487.879944,157.144333 487.607971,156.903290 481.415253,156.910095 
	C462.418884,156.931000 443.420959,157.099167 424.427124,156.892639 
	C419.399109,156.837982 417.268127,158.453690 417.940247,163.502823 
	C418.114410,164.811157 418.058289,166.177429 417.913635,167.495773 
	C417.478485,171.460922 419.262482,172.719849 423.122467,172.676834 
	C437.618103,172.515244 452.118469,172.727676 466.612579,172.506470 
	C470.574066,172.446014 472.279388,173.297562 472.261963,177.657913 
	C472.126526,211.484741 472.327301,245.313141 472.136230,279.139435 
	C472.032196,297.555603 457.234619,313.355713 438.993439,315.206482 
	C420.057129,317.127808 403.074097,305.485107 398.598969,287.538788 
	C398.200226,285.939758 397.645691,284.379547 396.997162,282.256805 
	C392.103210,283.414764 388.040924,285.940094 384.106750,288.529144 
	C382.283600,289.728943 383.361542,291.881836 383.884460,293.614807 
	C390.510498,315.573456 410.947540,330.215393 434.082794,331.008362 
	C459.474701,331.878662 482.795441,311.974152 487.226379,287.704071 
	C488.010406,283.409637 488.099884,279.065033 487.892944,274.756012 
	C487.693817,270.609344 488.949921,267.435059 491.937958,264.527008 
	C501.012024,255.695786 509.774567,246.541702 518.939087,237.807831 
	C521.769897,235.110016 522.719971,232.360153 522.702393,228.609634 
	C522.575867,201.614960 522.725464,174.618576 522.496399,147.625214 
	C522.454285,142.658524 523.827271,140.928772 528.940125,140.972885 
	C551.434021,141.167114 573.930908,140.983047 596.426758,140.975723 
	C624.529846,140.966583 646.812988,151.981323 661.860718,176.132538 
	C681.114258,207.034195 674.404114,248.047043 646.616821,271.212341 
	C644.178772,273.244843 642.060730,273.759521 639.543030,271.724976 
	C636.504089,269.269196 632.604309,267.821991 630.520447,264.397644 
	C631.056152,262.282288 632.775024,261.682037 634.015747,260.649445 
	C653.387085,244.527740 661.246216,224.172668 654.587830,199.650162 
	C648.187012,176.076187 631.948853,162.179749 608.063110,157.552979 
	C603.064636,156.584732 597.765259,157.080994 592.603882,157.059097 
	C576.440308,156.990479 560.275085,157.107620 544.113647,156.902222 
	C539.627136,156.845200 538.025696,158.241455 538.064758,162.906281 
	C538.265991,186.900345 538.097473,210.897308 538.219482,234.892441 
	C538.239502,238.838272 537.152832,241.828217 534.269958,244.619629 
	C525.891846,252.731934 517.856079,261.197754 509.480347,269.312653 
	C505.972870,272.710907 503.544373,276.184479 503.749908,281.375946 
	C503.872803,284.480347 502.949036,287.626190 502.431824,291.174286 
z"/>
<path fill="#000000" opacity="1.000000" stroke="none" 
	d="
M553.836182,298.000000 
	C553.847473,291.004303 553.974548,284.505890 553.822815,278.013977 
	C553.736328,274.314545 554.842224,272.689423 558.919617,272.629089 
	C574.730347,272.395203 590.563660,273.486572 606.352478,271.938507 
	C608.738586,271.704529 610.023865,272.546295 610.428284,275.096008 
	C612.643921,289.064941 613.854797,288.113770 600.137024,288.318573 
	C592.476929,288.432983 584.813904,288.342834 577.152283,288.373566 
	C570.311584,288.400970 570.039734,288.677917 570.043396,295.353516 
	C570.051819,310.510132 569.938599,325.668701 570.161682,340.822235 
	C570.228088,345.331604 568.774780,347.082916 564.176270,347.003967 
	C552.020996,346.795319 539.859436,346.847717 527.701721,346.950684 
	C523.697449,346.984589 522.383911,345.753174 522.456848,341.391846 
	C522.779541,322.076569 522.686523,302.752411 522.543152,283.432983 
	C522.514954,279.631683 523.643250,276.821869 526.354614,274.175140 
	C534.456543,266.266418 542.274536,258.066711 550.384338,250.166382 
	C552.856873,247.757706 553.866089,245.250153 553.848999,241.820389 
	C553.745117,221.001373 553.807190,200.181412 553.843384,179.361847 
	C553.855042,172.688614 553.929138,172.625229 560.502625,172.611679 
	C573.816650,172.584229 587.134155,172.394440 600.443787,172.633240 
	C619.644409,172.977722 635.146301,185.977097 640.027405,205.422989 
	C644.430420,222.964584 636.171082,241.897705 620.206055,251.160553 
	C613.253662,255.194305 605.776367,257.108826 597.815674,257.183838 
	C588.489197,257.271667 579.160950,257.248901 569.834290,257.172638 
	C567.201904,257.151123 565.050232,257.724121 563.117737,259.709747 
	C556.032593,266.989716 548.845520,274.171661 541.626831,281.319885 
	C539.102051,283.820038 538.027466,286.622284 538.080933,290.238159 
	C538.255798,302.061188 538.260315,313.889923 538.091980,325.713043 
	C538.036316,329.627686 539.443665,330.974976 543.336853,330.881104 
	C555.460205,330.588715 553.653259,331.935364 553.807617,320.485626 
	C553.906372,313.158295 553.831970,305.828613 553.836182,298.000000 
M618.821472,197.710251 
	C613.775024,191.835037 607.380432,188.558456 599.647156,188.375183 
	C591.319763,188.177826 582.981995,188.440002 574.652954,188.281616 
	C571.132019,188.214645 569.963989,189.690262 569.983948,193.036026 
	C570.069458,207.366531 570.087280,221.698273 569.982605,236.028503 
	C569.956299,239.633591 571.255920,241.147095 574.955811,241.062134 
	C582.284241,240.893890 589.622192,240.872772 596.950562,241.039124 
	C608.167603,241.293762 616.833008,236.822952 622.033691,226.910156 
	C627.246521,216.974411 625.832336,207.276382 618.821472,197.710251 
z"/>
<path fill="#000000" opacity="1.000000" stroke="none" 
	d="
M645.411011,299.859283 
	C648.058655,304.097107 650.430359,308.108673 653.039001,311.959747 
	C655.170593,315.106384 654.419922,317.186798 651.128723,318.631927 
	C648.307495,319.870758 645.651489,324.013702 642.549011,318.746796 
	C639.703918,313.916748 636.465393,309.318390 633.232117,304.360199 
	C628.597473,306.928009 627.128967,312.232452 621.835022,314.983551 
	C619.454895,297.565735 617.161926,280.786285 614.869019,264.006866 
	C615.277771,263.648834 615.686523,263.290802 616.095276,262.932800 
	C630.230225,272.342804 644.365173,281.752838 659.069336,291.541809 
	C655.081604,294.236511 651.378357,294.520630 648.008728,295.701904 
	C646.282166,296.307190 643.597778,296.449402 645.411011,299.859283 
z"/>
<path fill="#000000" opacity="1.000000" stroke="none" 
	d="
M430.879150,392.063354 
	C431.478271,388.344604 432.019989,385.060944 432.574005,381.779388 
	C432.839661,380.205902 432.512939,378.171204 434.893127,377.993988 
	C437.461121,377.802795 437.812378,379.882629 438.064301,381.666321 
	C438.900208,387.584869 439.582367,393.524994 440.351868,399.453156 
	C440.470276,400.364960 439.999268,401.453400 441.295563,402.319946 
	C442.105560,395.323883 442.917053,388.486084 443.676727,381.642548 
	C443.885712,379.760010 443.910675,377.657166 446.591309,378.024719 
	C449.065887,378.364014 448.447357,380.501068 448.256073,382.020721 
	C446.926636,392.582306 445.519165,403.134369 444.066223,413.679779 
	C443.838715,415.331207 443.372467,417.083496 441.149384,417.100067 
	C438.901093,417.116821 438.469849,415.343842 438.229095,413.696564 
	C437.243103,406.950836 436.360168,400.190063 434.903259,393.312164 
	C434.056274,399.341248 433.208221,405.370148 432.363312,411.399536 
	C432.224731,412.388550 432.167572,413.394470 431.952881,414.366058 
	C431.654236,415.717712 431.112122,416.990906 429.470337,417.069550 
	C427.567566,417.160675 426.903412,415.924011 426.671539,414.249115 
	C425.394348,405.022858 424.060547,395.804230 422.828827,386.571960 
	C422.532684,384.352417 422.627045,382.204712 419.356110,382.298645 
	C416.237976,382.388153 416.190369,384.368927 415.861176,386.656158 
	C414.829132,393.827087 416.188995,400.966583 415.927368,408.119415 
	C415.866486,409.783936 416.006927,411.465057 415.825378,413.113312 
	C415.633789,414.852875 415.773712,417.185455 413.064728,416.966858 
	C410.783173,416.782776 410.903809,414.730896 410.890076,413.102783 
	C410.829651,405.937561 411.038361,398.764038 410.756012,391.609070 
	C410.606842,387.828583 413.085480,382.439148 406.031952,381.736755 
	C405.283356,381.662201 405.055878,380.437195 405.233795,379.582672 
	C405.468201,378.456879 406.333801,377.877472 407.401611,377.870453 
	C413.063934,377.833221 418.731445,377.726562 424.387207,377.926117 
	C427.131042,378.022919 426.990387,380.501068 427.195953,382.464417 
	C427.905457,389.240784 428.594330,396.019318 429.401855,403.874969 
	C429.968079,399.354980 430.397461,395.927155 430.879150,392.063354 
z"/>
<path fill="#000000" opacity="1.000000" stroke="none" 
	d="
M530.023315,394.119141 
	C529.883057,399.405853 530.320679,404.228790 529.446045,409.013153 
	C528.229919,415.665802 521.369141,419.521912 515.051086,417.111511 
	C513.048889,416.347626 512.947205,414.720581 512.941711,413.051208 
	C512.907776,402.755157 512.955566,392.458740 512.879883,382.163116 
	C512.856934,379.034546 514.105164,377.786804 517.313110,377.678070 
	C525.744385,377.392273 528.783081,379.791473 529.769165,388.170288 
	C529.981873,389.977966 529.945740,391.814972 530.023315,394.119141 
M523.180420,411.545990 
	C524.293884,410.426575 524.773804,409.040283 524.779480,407.499329 
	C524.803833,400.883972 524.835083,394.268311 524.791199,387.653229 
	C524.778687,385.772827 524.265686,383.909363 522.426941,383.033142 
	C520.019409,381.885742 517.845093,381.524017 517.886780,385.427673 
	C517.969849,393.202301 517.962708,400.978027 517.970154,408.753296 
	C517.973267,412.019958 519.171021,413.528442 523.180420,411.545990 
z"/>
<path fill="#000000" opacity="1.000000" stroke="none" 
	d="
M662.960083,413.588196 
	C662.668274,415.824493 662.136780,417.453430 659.851807,416.985779 
	C657.960449,416.598724 657.875366,414.923706 657.872498,413.415375 
	C657.852295,402.760651 657.866394,392.105804 657.881836,381.451019 
	C657.884888,379.354279 658.723022,378.144165 661.022888,377.757782 
	C669.809692,376.281555 675.818115,381.169800 673.741272,389.741852 
	C672.064331,396.663422 673.823669,403.033173 673.751892,409.644287 
	C673.725098,412.118805 675.936096,416.473419 671.967285,416.749054 
	C667.564880,417.054718 669.287170,412.396271 668.930786,409.740509 
	C668.600586,407.278961 668.824646,404.745605 668.537537,402.274872 
	C668.348572,400.648590 667.167786,399.566376 665.448120,399.556671 
	C663.435547,399.545319 663.062622,401.035980 663.044556,402.650909 
	C663.005432,406.146606 663.006226,409.642761 662.960083,413.588196 
M669.019653,389.313995 
	C668.859131,386.894714 669.577820,384.130585 666.740845,382.691162 
	C665.653931,382.139679 664.059143,382.065765 663.669128,383.324432 
	C662.584656,386.824921 662.312012,390.510498 663.268433,394.067963 
	C663.592834,395.274414 665.285400,395.005737 666.397461,394.619995 
	C668.496460,393.891907 668.732849,392.006683 669.019653,389.313995 
z"/>
<path fill="#000000" opacity="1.000000" stroke="none" 
	d="
M600.957886,394.077209 
	C600.944763,390.443054 600.804810,387.300049 601.594482,384.191467 
	C602.734436,379.703918 605.435242,377.467499 610.163391,377.586639 
	C614.818970,377.703979 617.471558,380.420349 617.863159,384.553864 
	C618.691406,393.296265 618.748901,402.123352 617.860352,410.863464 
	C617.365845,415.727997 613.751831,418.257446 609.228577,418.012848 
	C605.034851,417.786072 601.473999,414.579010 601.145020,409.977509 
	C600.779297,404.861298 600.995911,399.703430 600.957886,394.077209 
M613.668640,393.631714 
	C613.603638,391.303284 613.740295,388.946228 613.414917,386.654785 
	C613.112427,384.524475 612.509338,381.998932 609.761169,382.014496 
	C606.690308,382.031921 606.171143,384.624115 606.146973,387.040771 
	C606.076904,394.034515 606.126953,401.029877 606.178955,408.024200 
	C606.197083,410.458466 606.486572,413.055420 609.657593,413.067963 
	C612.737366,413.080139 613.316162,410.378632 613.455078,408.073608 
	C613.725281,403.591644 613.618530,399.086975 613.668640,393.631714 
z"/>
<path fill="#000000" opacity="1.000000" stroke="none" 
	d="
M369.832397,391.146759 
	C369.807983,388.170654 369.753845,385.682587 370.606354,383.261841 
	C372.005737,379.288116 374.697113,377.444946 378.959778,377.626831 
	C382.996124,377.799103 386.027985,379.683502 386.532471,383.548553 
	C387.760498,392.956635 387.861053,402.464752 386.474945,411.870270 
	C385.856323,416.067841 382.486023,417.999023 378.449188,417.957733 
	C374.332550,417.915710 371.609070,415.552399 370.588287,411.524902 
	C368.923279,404.955658 370.242859,398.253845 369.832397,391.146759 
M374.953583,387.921082 
	C374.972626,394.566040 374.939545,401.211761 375.038818,407.855499 
	C375.073914,410.204071 375.252106,412.913696 378.372406,413.099152 
	C381.485046,413.284210 382.197662,410.608124 382.279724,408.294464 
	C382.526764,401.328766 382.590393,394.350464 382.475739,387.381195 
	C382.434601,384.881500 381.786896,382.010315 378.532745,381.967499 
	C375.369629,381.925934 375.299347,384.719513 374.953583,387.921082 
z"/>
<path fill="#000000" opacity="1.000000" stroke="none" 
	d="
M468.867981,393.005859 
	C468.889343,388.841187 468.910522,385.175293 468.924957,381.509399 
	C468.934418,379.097198 470.058746,378.006744 472.543793,377.736145 
	C481.541565,376.756378 486.637756,381.578186 484.675720,390.436707 
	C483.655914,395.041107 483.235199,399.241730 484.180359,403.849274 
	C484.839081,407.060455 484.410248,410.489960 484.522430,413.820099 
	C484.574951,415.379852 484.760742,417.000336 482.541962,417.061798 
	C480.563751,417.116547 479.992004,415.646881 479.919769,414.070251 
	C479.767303,410.742584 479.765106,407.407623 479.724182,404.075348 
	C479.691254,401.397095 478.749268,399.261719 475.732056,399.533203 
	C472.652771,399.810272 473.728210,402.324982 473.741974,404.222076 
	C473.762421,407.045288 473.698639,409.869659 473.636353,412.692749 
	C473.597565,414.451447 474.170959,416.801392 471.520416,416.967102 
	C468.864227,417.133209 468.973297,414.790222 468.950592,413.002136 
	C468.868103,406.503662 468.885284,400.003906 468.867981,393.005859 
M474.884369,394.686768 
	C477.371216,395.196777 479.380432,394.508118 479.632324,391.795563 
	C479.912048,388.783020 481.117004,385.289307 478.150238,383.008209 
	C476.564850,381.789307 474.052368,381.431580 473.811462,384.592773 
	C473.566132,387.812378 472.518005,391.132568 474.884369,394.686768 
z"/>
<path fill="#000000" opacity="1.000000" stroke="none" 
	d="
M453.670593,412.578705 
	C453.114471,414.815430 453.346893,417.559967 450.329193,416.843658 
	C447.835968,416.251801 448.687500,413.859650 448.943512,412.185547 
	C450.501282,402.000946 452.165649,391.832581 453.818787,381.662750 
	C454.159119,379.569122 454.840118,377.787842 457.508850,377.811646 
	C459.980774,377.833710 460.578949,379.634399 460.886780,381.433105 
	C462.708862,392.079742 464.451111,402.740356 466.152313,413.407074 
	C466.383118,414.854218 466.560944,416.640503 464.479797,416.968719 
	C462.559967,417.271484 461.917450,415.923096 461.652252,414.259583 
	C461.390625,412.618805 461.000366,410.998962 460.692474,409.365051 
	C460.310669,407.339050 459.984680,405.348785 457.163422,405.459198 
	C454.232391,405.573914 454.344269,407.714722 454.135315,409.707977 
	C454.048615,410.534637 453.888336,411.353577 453.670593,412.578705 
M455.768738,399.791626 
	C458.557800,401.645447 458.946289,399.639984 458.805054,397.673157 
	C458.579315,394.529785 458.001526,391.411652 457.383240,386.901917 
	C456.647949,391.903198 456.119171,395.499939 455.768738,399.791626 
z"/>
<path fill="#000000" opacity="1.000000" stroke="none" 
	d="
M625.715332,416.744446 
	C621.484009,417.385986 622.038208,414.483765 622.016479,412.296356 
	C621.925476,403.134857 621.853149,393.970123 622.020630,384.811096 
	C622.066833,382.283356 620.703979,378.813507 624.873291,377.841095 
	C629.870850,376.675568 634.992920,378.410187 636.852051,381.876190 
	C640.871521,389.369995 637.795227,397.803101 629.879578,400.575989 
	C627.449707,401.427216 627.200989,403.117462 627.047180,405.228546 
	C626.772766,408.994720 627.971985,412.893799 625.715332,416.744446 
M632.533020,384.113403 
	C631.671021,382.607178 630.320251,382.025940 628.728149,382.530731 
	C626.877197,383.117615 627.140137,384.869324 627.086365,386.320801 
	C627.006287,388.481293 626.983032,390.648376 627.056396,392.808533 
	C627.104919,394.237854 626.802795,396.124054 628.929443,396.285370 
	C630.743774,396.422943 632.048767,395.345703 632.750244,393.630432 
	C633.946594,390.704956 633.715820,387.772156 632.533020,384.113403 
z"/>
<path fill="#000000" opacity="1.000000" stroke="none" 
	d="
M552.577148,378.352295 
	C555.757996,386.776520 555.363586,395.566193 557.909485,404.654236 
	C559.208801,396.595551 560.406250,389.248840 561.570312,381.896820 
	C561.887024,379.896393 561.943665,377.482941 564.854187,378.022797 
	C567.625916,378.536926 566.530945,380.867798 566.263977,382.514984 
	C564.615234,392.685791 562.892151,402.844727 561.143860,412.999023 
	C560.807251,414.954498 560.534302,417.145233 557.784485,417.173096 
	C554.973694,417.201538 554.809937,414.982880 554.470459,413.022400 
	C552.654663,402.537262 550.856628,392.049072 549.081238,381.557068 
	C548.670959,379.132324 549.288269,377.529419 552.577148,378.352295 
z"/>
<path fill="#000000" opacity="1.000000" stroke="none" 
	d="
M362.903381,396.158813 
	C368.208466,400.707245 367.964813,406.406830 366.905334,412.046570 
	C366.054596,416.574982 361.632202,418.886902 357.367859,417.628021 
	C353.256165,416.414215 350.227356,410.716888 351.579193,406.775452 
	C351.869415,405.929352 352.332520,405.316223 353.252563,405.152283 
	C354.340729,404.958344 355.236267,405.296631 355.792969,406.254303 
	C356.033600,406.668274 356.149017,407.189941 356.197144,407.675018 
	C356.455414,410.277588 356.130798,413.809753 360.024261,413.226227 
	C363.564545,412.695618 362.571259,409.154510 362.756866,406.613495 
	C363.039276,402.748047 360.550903,400.672150 357.838135,398.544952 
	C352.135010,394.072968 350.401520,388.293640 352.684692,382.308319 
	C354.200317,378.335022 358.207733,376.537537 362.484497,377.912567 
	C365.377594,378.842743 367.881989,383.809509 367.101837,386.990204 
	C366.845490,388.035492 366.423889,388.891571 365.253571,389.014130 
	C363.879181,389.158020 363.067810,388.482300 362.802429,387.124084 
	C362.342804,384.771698 362.221863,380.996918 358.918640,382.382721 
	C355.697327,383.734192 355.913391,387.518127 357.381561,390.698853 
	C358.485260,393.090027 360.764984,394.293610 362.903381,396.158813 
z"/>
<path fill="#000000" opacity="1.000000" stroke="none" 
	d="
M640.917542,410.847839 
	C640.943481,401.374695 641.131409,392.377533 640.922302,383.389648 
	C640.821045,379.034821 642.383606,377.207245 646.737427,377.711670 
	C648.382446,377.902283 650.065796,377.739166 651.729431,377.798676 
	C653.343079,377.856384 654.867859,378.261627 654.722961,380.282898 
	C654.599060,382.012115 653.105835,382.393616 651.755432,382.209717 
	C646.362122,381.475281 645.605347,384.579376 646.028320,388.826263 
	C646.174927,390.297882 646.171387,391.784485 646.227661,393.066803 
	C647.960876,394.770691 649.971680,393.812927 651.678955,394.339264 
	C652.840271,394.697296 653.955566,395.026764 654.042114,396.491882 
	C654.142578,398.191925 653.056946,398.762573 651.608521,399.070435 
	C649.660706,399.484436 646.760132,398.327820 646.271057,401.403656 
	C645.752319,404.666321 645.426025,408.115234 646.563171,411.282471 
	C647.336548,413.436462 649.727478,412.509888 651.454651,412.736755 
	C653.045837,412.945770 655.148376,412.585022 655.056458,415.072021 
	C654.968628,417.448029 652.924805,417.216187 651.307251,417.305786 
	C649.812561,417.388580 648.290527,417.180969 646.815125,417.370453 
	C642.098511,417.976257 640.401184,415.763397 640.917542,410.847839 
z"/>
<path fill="#000000" opacity="1.000000" stroke="none" 
	d="
M573.178711,377.738037 
	C575.972412,377.777161 578.306030,377.773376 580.632629,377.898468 
	C581.732056,377.957550 582.474426,378.664276 582.605164,379.795593 
	C582.734253,380.912750 582.212952,382.115601 581.142761,382.015808 
	C571.118835,381.081360 574.735962,388.567474 573.813110,393.228760 
	C575.550537,394.942780 577.524719,393.804779 579.240051,394.249817 
	C580.567871,394.594299 581.974304,394.834015 581.984741,396.585541 
	C581.994690,398.262329 580.790344,398.774719 579.358582,399.019867 
	C577.507263,399.336884 574.732788,398.450195 574.348022,401.107849 
	C573.853821,404.520905 573.686401,408.138428 574.304138,411.497528 
	C574.686279,413.575256 577.473145,412.477600 579.192078,412.713898 
	C580.790710,412.933655 582.878784,412.524841 582.891235,414.967255 
	C582.903442,417.366638 580.863892,417.169556 579.228516,417.296295 
	C568.988770,418.090057 568.861023,417.977448 568.875610,407.760193 
	C568.887756,399.261078 568.969543,390.761719 568.919128,382.263031 
	C568.903076,379.548126 569.506348,377.622681 573.178711,377.738037 
z"/>
<path fill="#000000" opacity="1.000000" stroke="none" 
	d="
M78.362610,256.547150 
	C79.447021,258.127197 81.147667,258.988159 80.900658,261.322723 
	C78.402374,260.870789 76.822090,259.228119 75.222702,257.653656 
	C65.149902,247.738129 54.962906,237.933395 45.101292,227.811783 
	C42.253242,224.888626 39.295444,223.887405 35.415279,223.866623 
	C26.773064,223.820343 18.131838,223.478485 9.492042,223.200119 
	C8.068151,223.154221 6.478590,223.536819 4.924850,221.801559 
	C7.267691,220.146149 9.905329,220.205078 12.356220,220.159210 
	C20.337055,220.009888 28.321720,220.039459 36.304844,220.050446 
	C39.734356,220.055176 42.753513,220.964828 45.314320,223.547501 
	C56.195927,234.522049 67.185852,245.389175 78.362610,256.547150 
z"/>
<path fill="#000000" opacity="1.000000" stroke="none" 
	d="
M533.685303,393.004730 
	C533.683594,389.346832 533.891663,386.170410 533.628723,383.033478 
	C533.271423,378.769043 535.200195,377.329651 539.174377,377.707214 
	C540.823425,377.863922 542.499573,377.712372 544.157837,377.803131 
	C545.529297,377.878174 546.906006,378.169312 546.991943,379.927216 
	C547.079346,381.714996 545.758179,381.978973 544.362244,382.230042 
	C538.505432,383.283447 537.214661,385.428772 538.277222,391.325592 
	C538.787415,394.156952 540.852722,393.878998 542.733215,394.286682 
	C544.131348,394.589783 546.006042,394.468109 546.089844,396.528076 
	C546.187439,398.927246 544.223938,398.947113 542.583130,399.048035 
	C535.151245,399.505157 539.114746,405.180786 538.357178,408.547150 
	C537.503540,412.340240 540.164062,412.841766 543.206482,412.781830 
	C544.872498,412.748962 547.351746,412.178802 547.313416,415.004974 
	C547.276306,417.730835 544.875427,417.195282 543.154907,417.278290 
	C533.698059,417.734192 533.698608,417.716492 533.696960,408.466675 
	C533.696045,403.479065 533.689331,398.491425 533.685303,393.004730 
z"/>
<path fill="#000000" opacity="1.000000" stroke="none" 
	d="
M500.264587,398.428711 
	C497.923950,399.711609 494.633362,397.953156 493.690033,400.658997 
	C492.547882,403.935242 492.773834,407.613007 493.542908,410.987152 
	C494.139282,413.603607 496.828857,412.485809 498.672516,412.730347 
	C500.245972,412.939026 502.325745,412.446503 502.224091,415.020081 
	C502.129272,417.421326 500.167175,417.184387 498.530670,417.293243 
	C498.365234,417.304230 498.198608,417.295410 498.032806,417.302338 
	C488.639404,417.694885 488.644470,417.694946 488.650116,408.469788 
	C488.655212,400.169250 488.882996,391.859406 488.554108,383.571838 
	C488.367249,378.863495 490.173859,377.195129 494.612976,377.732849 
	C495.431152,377.831970 496.280884,377.669220 497.099518,377.766388 
	C498.928345,377.983521 501.728943,377.068176 501.812958,379.958374 
	C501.900635,382.974579 499.028748,382.279327 497.249908,382.206879 
	C493.713165,382.062836 493.001007,384.007111 493.201874,386.897003 
	C493.360168,389.174316 492.716614,391.527344 493.579468,393.354218 
	C495.699615,395.810425 501.817108,391.480316 500.264587,398.428711 
z"/>
<path fill="#000000" opacity="1.000000" stroke="none" 
	d="
M585.959595,409.887909 
	C585.958130,401.253174 585.822998,393.102081 586.016907,384.958893 
	C586.075562,382.498199 584.304321,378.125092 588.546387,378.227478 
	C592.555603,378.324188 590.880310,382.674194 590.959595,385.170319 
	C591.191711,392.479767 591.189087,399.805573 590.980469,407.116486 
	C590.870911,410.955231 591.716248,413.238861 596.151672,412.823425 
	C597.651794,412.682922 599.911560,412.347443 599.903931,414.853088 
	C599.895813,417.542786 597.573120,417.136230 595.815796,417.266602 
	C594.823120,417.340271 593.821228,417.295044 592.823486,417.295715 
	C585.954773,417.300385 585.954773,417.299713 585.959595,409.887909 
z"/>
<path fill="#000000" opacity="1.000000" stroke="none" 
	d="
M390.746338,395.001831 
	C390.763824,390.507843 390.916779,386.508026 390.757874,382.520630 
	C390.624023,379.161469 391.832794,377.493530 395.342407,377.728424 
	C397.331635,377.861572 399.336823,377.741974 401.329742,377.839600 
	C402.733368,377.908356 404.054108,378.304413 404.010071,380.095306 
	C403.966461,381.869141 402.641663,382.079590 401.241760,382.275635 
	C399.370178,382.537689 396.790192,381.450531 395.882416,383.801117 
	C394.798859,386.606903 395.105713,389.735870 395.559265,392.680511 
	C395.893707,394.851471 397.966339,394.542511 399.599915,394.683685 
	C401.188721,394.820984 403.256958,394.403137 403.384216,396.842316 
	C403.512390,399.297943 401.515472,399.347290 399.874939,399.233398 
	C395.849792,398.953918 395.156189,401.239838 395.296356,404.548065 
	C395.430115,407.704315 395.333954,410.871613 395.291901,414.033417 
	C395.273682,415.401764 395.122467,416.863770 393.334625,416.965637 
	C391.307129,417.081116 390.852936,415.579041 390.836273,413.974915 
	C390.772278,407.817413 390.771210,401.659271 390.746338,395.001831 
z"/>
<path fill="#000000" opacity="1.000000" stroke="none" 
	d="
M963.020996,404.210846 
	C962.654724,408.870941 962.295349,413.093231 961.935974,417.315491 
	C959.312500,413.830780 959.745117,409.969208 959.949768,406.327179 
	C960.229370,401.351440 958.304321,397.700531 954.835205,394.463470 
	C950.989136,390.874695 947.191956,387.214264 944.911560,382.291260 
	C951.897888,388.640717 961.681091,392.589508 963.020996,404.210846 
z"/>
<path fill="#000000" opacity="1.000000" stroke="none" 
	d="
M70.838493,172.164246 
	C68.593056,169.607513 66.176620,167.571564 65.799484,164.151520 
	C73.402534,170.253784 80.143394,177.151825 86.185371,184.778397 
	C80.275810,181.678604 76.076172,176.576996 70.838493,172.164246 
z"/>
<path fill="#000000" opacity="1.000000" stroke="none" 
	d="
M959.115601,123.042267 
	C960.394287,123.321312 961.284546,123.583893 962.174744,123.846474 
	C955.117249,126.089783 947.391357,123.326202 940.299683,128.922806 
	C943.014587,122.981079 943.014587,122.981079 959.115601,123.042267 
z"/>
<path fill="#000000" opacity="1.000000" stroke="none" 
	d="
M973.503479,177.449966 
	C968.529175,180.861908 965.527100,186.208359 958.859619,189.488663 
	C962.806885,183.392593 967.354370,179.841690 971.963379,176.379517 
	C972.510498,175.968491 973.643982,175.838181 973.503479,177.449966 
z"/>
<path fill="#000000" opacity="1.000000" stroke="none" 
	d="
M967.601196,204.206451 
	C968.411377,198.835281 973.106140,196.938553 976.768860,194.047287 
	C974.804077,198.356049 971.481934,201.419861 967.601196,204.206451 
z"/>
</svg>